<svg width="51" height="32" viewBox="0 0 51 32" fill="none" xmlns="http://www.w3.org/2000/svg">
<path d="M5.82857 0C4.28274 0 2.80022 0.612985 1.70715 1.70411C0.61408 2.79523 0 4.2751 0 5.81818V23.2727C0 24.8158 0.61408 26.2957 1.70715 27.3868C2.80022 28.4779 4.28274 29.0909 5.82857 29.0909H14.5714V23.2727H5.82857V5.81818H14.5714V0H5.82857ZM23.3143 0C21.7685 0 20.2859 0.612985 19.1929 1.70411C18.0998 2.79523 17.4857 4.2751 17.4857 5.81818V23.2727C17.4857 24.8158 18.0998 26.2957 19.1929 27.3868C20.2859 28.4779 21.7685 29.0909 23.3143 29.0909H29.1429C30.6887 29.0909 32.1712 28.4779 33.2643 27.3868C34.3573 26.2957 34.9714 24.8158 34.9714 23.2727V5.81818C34.9714 4.2751 34.3573 2.79523 33.2643 1.70411C32.1712 0.612985 30.6887 0 29.1429 0H23.3143ZM23.3143 5.81818H29.1429V23.2727H23.3143V5.81818ZM37.8857 10.1818V14.5455H46.6286V18.9091H42.2571C41.0978 18.9091 39.9859 19.3688 39.1661 20.1872C38.3463 21.0055 37.8857 22.1154 37.8857 23.2727V32H51V27.6364H42.2571V23.2727H46.6286C47.7879 23.2727 48.8998 22.813 49.7196 21.9946C50.5394 21.1763 51 20.0664 51 18.9091V14.5455C51 13.3881 50.5394 12.2782 49.7196 11.4599C48.8998 10.6416 47.7879 10.1818 46.6286 10.1818H37.8857Z" fill="#C1C1C1"/>
</svg>
