<svg width="39" height="41" viewBox="0 0 39 41" fill="none" xmlns="http://www.w3.org/2000/svg">
<path fill-rule="evenodd" clip-rule="evenodd" d="M19.4999 19.213C21.0923 19.213 22.6195 18.5804 23.7455 17.4545C24.8715 16.3285 25.504 14.8013 25.504 13.2089C25.504 11.6165 24.8715 10.0894 23.7455 8.96339C22.6195 7.83741 21.0923 7.20483 19.4999 7.20483C17.9076 7.20483 16.3804 7.83741 15.2544 8.96339C14.1284 10.0894 13.4958 11.6165 13.4958 13.2089C13.4958 14.8013 14.1284 16.3285 15.2544 17.4545C16.3804 18.5804 17.9076 19.213 19.4999 19.213ZM19.4999 12.0081C19.8184 12.0081 20.1238 12.1346 20.349 12.3598C20.5742 12.585 20.7008 12.8904 20.7008 13.2089C20.7008 13.5274 20.5742 13.8328 20.349 14.058C20.1238 14.2832 19.8184 14.4097 19.4999 14.4097C19.1815 14.4097 18.876 14.2832 18.6508 14.058C18.4256 13.8328 18.2991 13.5274 18.2991 13.2089C18.2991 12.8904 18.4256 12.585 18.6508 12.3598C18.876 12.1346 19.1815 12.0081 19.4999 12.0081Z" fill="#55C6E5"/>
<path fill-rule="evenodd" clip-rule="evenodd" d="M7.49194 12.695C7.49194 19.691 14.2285 31.2213 19.5001 31.2213C24.7717 31.2213 31.5083 19.691 31.5083 12.695C31.5083 5.71589 26.1695 0 19.5001 0C12.8308 0 7.49194 5.71829 7.49194 12.695ZM26.705 12.695C26.705 17.3878 21.4286 26.418 19.5001 26.418C17.5716 26.418 12.2952 17.3878 12.2952 12.695C12.2952 8.30005 15.5614 4.80327 19.5001 4.80327C23.4388 4.80327 26.705 8.30005 26.705 12.695Z" fill="#55C6E5"/>
<path d="M28.4581 19.2131C27.8211 19.2131 27.2103 18.96 26.7599 18.5096C26.3095 18.0592 26.0565 17.4484 26.0565 16.8114C26.0565 16.1745 26.3095 15.5636 26.7599 15.1132C27.2103 14.6628 27.8211 14.4098 28.4581 14.4098C30.0326 14.4101 31.5637 14.9261 32.8171 15.879C34.0706 16.8319 34.9774 18.1691 35.3988 19.6862L38.7371 31.6944C39.0345 32.7648 39.0803 33.8896 38.8709 34.9807C38.6615 36.0718 38.2026 37.0997 37.5301 37.9841C36.8576 38.8685 35.9897 39.5853 34.9942 40.0786C33.9987 40.5719 32.9026 40.8283 31.7916 40.8278H7.20362C6.09301 40.8276 4.99747 40.5706 4.00259 40.077C3.0077 39.5834 2.1404 38.8664 1.46843 37.9822C0.796456 37.0979 0.338003 36.0703 0.128879 34.9795C-0.0802451 33.8888 -0.0343787 32.7645 0.262896 31.6944L3.59877 19.6862C4.02032 18.1687 4.92748 16.8312 6.18141 15.8783C7.43534 14.9254 8.96697 14.4095 10.5419 14.4098C11.1789 14.4098 11.7897 14.6628 12.2401 15.1132C12.6905 15.5636 12.9435 16.1745 12.9435 16.8114C12.9435 17.4484 12.6905 18.0592 12.2401 18.5096C11.7897 18.96 11.1789 19.2131 10.5419 19.2131C10.0173 19.2133 9.5072 19.3853 9.08956 19.7027C8.67192 20.0202 8.36971 20.4657 8.22912 20.9711L4.89085 32.9792C4.79152 33.3363 4.77618 33.7115 4.84603 34.0755C4.91589 34.4395 5.06904 34.7824 5.2935 35.0773C5.51795 35.3723 5.80763 35.6112 6.13984 35.7756C6.47206 35.9399 6.83779 36.0251 7.20843 36.0245H31.7964C32.1666 36.0244 32.5318 35.9386 32.8634 35.774C33.195 35.6093 33.484 35.3703 33.708 35.0754C33.9319 34.7806 34.0846 34.438 34.1542 34.0743C34.2238 33.7107 34.2084 33.3359 34.1092 32.9792L30.7733 20.9711C30.6326 20.4653 30.33 20.0195 29.9119 19.702C29.4938 19.3845 28.9831 19.2128 28.4581 19.2131Z" fill="#55C6E5"/>
</svg>
