<svg width="55" height="47" viewBox="0 0 55 47" fill="none" xmlns="http://www.w3.org/2000/svg">
<path d="M27.5 0C19.6667 0 13.3333 6.28241 13.3333 14.0528C13.3333 21.8231 19.6667 28.1055 27.5 28.1055C35.3333 28.1055 41.6667 21.8231 41.6667 14.0528C41.6667 6.28241 35.3333 0 27.5 0ZM16.6071 26.0862L11.0238 33.1244C11.6429 33.4905 12.2143 33.9392 12.7143 34.447L18.2976 27.397C17.7024 26.9955 17.131 26.5585 16.6071 26.0862ZM38.3929 26.0862C37.869 26.5585 37.2976 26.9955 36.7024 27.4088L42.2857 34.447C42.7857 33.9392 43.3571 33.4905 43.9762 33.1244L38.3929 26.0862ZM6.54762 34.01C2.91905 34.01 0 36.9033 0 40.505C0 44.1068 2.91905 47 6.54762 47C10.1786 47 13.0952 44.1068 13.0952 40.505C13.0952 36.9033 10.1786 34.01 6.54762 34.01ZM48.4524 34.01C44.8214 34.01 41.9048 36.9033 41.9048 40.505C41.9048 44.1068 44.8214 47 48.4524 47C52.0833 47 55 44.1068 55 40.505C55 36.9033 52.0833 34.01 48.4524 34.01Z" fill="white"/>
</svg>
