<svg width="40" height="41" viewBox="0 0 40 41" fill="none" xmlns="http://www.w3.org/2000/svg">
<g clip-path="url(#clip0_19_116)">
<path d="M39.8502 1.80239V1.80239C39.793 1.00121 39.2751 0.306435 38.5236 0.0227911L38.4632 0C34.8884 0.0384116 31.8908 0.499351 29.6499 0.983929C27.518 1.44191 24.4644 2.1215 20.8366 3.92981C17.786 5.4515 15.7924 7.04115 15.286 7.45186C13.4515 8.944 12.0881 10.4361 11.1252 11.6299C10.8278 11.5826 5.71294 10.8646 2.2736 14.883C-1.09212 18.8128 0.247691 23.6498 0.347809 23.9807L7.40611 24.0546L16.7112 33.1877C16.5904 35.5396 16.4668 37.8916 16.346 40.2436L17.3855 40.9823C18.316 41.0325 22.0881 41.1359 25.3979 38.4028C29.7677 34.7921 29.5881 29.3258 29.5557 28.7083C31.0604 27.4318 33.0422 25.4876 34.8767 22.7545C35.23 22.2285 36.6876 20.0213 37.8743 16.9868C40.2153 10.9946 40.1564 5.22103 39.8502 1.80239ZM28.3278 16.127C25.5068 16.127 23.2188 13.8193 23.2188 10.971C23.2188 8.12259 25.5068 5.81493 28.3278 5.81493C31.1487 5.81493 33.4338 8.12259 33.4338 10.971C33.4338 13.8193 31.1458 16.127 28.3278 16.127Z" fill="#55C6E5"/>
<path d="M5.68015 28.3064L3.10653 32.9631L3.04175 37.6847H7.99169L12.4322 34.9487L10.4092 33.0488L7.30853 33.492L7.6825 30.3806L5.68015 28.3064Z" fill="#55C6E5"/>
</g>
<defs>
<clipPath id="clip0_19_116">
<rect width="40" height="41" fill="white"/>
</clipPath>
</defs>
</svg>
