<svg width="40" height="41" viewBox="0 0 40 41" fill="none" xmlns="http://www.w3.org/2000/svg">
<g clip-path="url(#clip0_19_131)">
<path d="M39.8489 1.80239C39.7918 1.00121 39.2739 0.306435 38.5224 0.0227914L38.462 0C34.8872 0.0384116 31.8896 0.499351 29.6487 0.983929C27.5168 1.44191 24.4632 2.12151 20.8354 3.92981C17.7848 5.4515 15.7912 7.04115 15.2848 7.45186C13.4502 8.944 12.0869 10.4361 11.124 11.6299C10.8266 11.5826 5.71172 10.8646 2.27238 14.883C-1.09334 18.8128 0.24647 23.6498 0.346588 23.9807L7.40489 24.0546L16.71 33.1877C16.5892 35.5396 16.4656 37.8916 16.3448 40.2436L17.3843 40.9823C18.3148 41.0325 22.0869 41.1359 25.3966 38.4028C29.7665 34.7921 29.5869 29.3258 29.5545 28.7083C31.0592 27.4318 33.0409 25.4876 34.8754 22.7545C35.2288 22.2285 36.6864 20.0213 37.8731 16.9868C40.2141 10.9946 40.1552 5.22103 39.8489 1.80239ZM28.3266 16.127C25.5056 16.127 23.2176 13.8193 23.2176 10.971C23.2176 8.12259 25.5056 5.81493 28.3266 5.81493C31.1475 5.81493 33.4326 8.12259 33.4326 10.971C33.4326 13.8193 31.1446 16.127 28.3266 16.127Z" fill="white"/>
<path d="M5.68015 28.3064L3.10653 32.9631L3.04175 37.6847H7.99169L12.4322 34.9487L10.4092 33.0488L7.30853 33.492L7.6825 30.3806L5.68015 28.3064Z" fill="white"/>
</g>
<defs>
<clipPath id="clip0_19_131">
<rect width="40" height="41" fill="white"/>
</clipPath>
</defs>
</svg>
