<svg width="39" height="35" viewBox="0 0 39 35" fill="none" xmlns="http://www.w3.org/2000/svg">
<path fill-rule="evenodd" clip-rule="evenodd" d="M12.5677 0.326207C12.8539 0.136142 13.1853 0.0248843 13.5284 0.00371227C13.8716 -0.0174598 14.2142 0.052206 14.5216 0.205648L25.35 5.60357L36.1783 0.205648C36.4756 0.0575461 36.8058 -0.0123682 37.1377 0.00253935C37.4697 0.0174469 37.7923 0.116682 38.0749 0.290828C38.3576 0.464975 38.591 0.708256 38.7528 0.997587C38.9147 1.28692 38.9998 1.6127 39 1.94403V25.278C39 25.598 38.9209 25.9131 38.7695 26.1954C38.6181 26.4776 38.3992 26.7182 38.1323 26.8958L26.4323 34.6738C26.1461 34.8639 25.8147 34.9751 25.4716 34.9963C25.1284 35.0175 24.7858 34.9478 24.4784 34.7943L13.65 29.3964L2.82165 34.7943C2.52443 34.9425 2.19419 35.0124 1.86226 34.9975C1.53034 34.9826 1.20773 34.8833 0.925069 34.7092C0.642403 34.535 0.40905 34.2917 0.247151 34.0024C0.0852518 33.7131 0.000177412 33.3873 2.18388e-08 33.056V9.72201C-4.80076e-05 9.40196 0.0791269 9.08685 0.2305 8.80463C0.381873 8.52242 0.600763 8.28182 0.86775 8.10419L12.5677 0.326207ZM5.85 17.5C5.85 18.0157 6.05545 18.5103 6.42114 18.875C6.78684 19.2396 7.28283 19.4445 7.8 19.4445C8.31717 19.4445 8.81316 19.2396 9.17886 18.875C9.54455 18.5103 9.75 18.0157 9.75 17.5C9.75 16.9843 9.54455 16.4897 9.17886 16.125C8.81316 15.7604 8.31717 15.5555 7.8 15.5555C7.28283 15.5555 6.78684 15.7604 6.42114 16.125C6.05545 16.4897 5.85 16.9843 5.85 17.5ZM15.6 19.4445C15.0828 19.4445 14.5868 19.2396 14.2211 18.875C13.8554 18.5103 13.65 18.0157 13.65 17.5C13.65 16.9843 13.8554 16.4897 14.2211 16.125C14.5868 15.7604 15.0828 15.5555 15.6 15.5555C16.1172 15.5555 16.6132 15.7604 16.9789 16.125C17.3446 16.4897 17.55 16.9843 17.55 17.5V17.5019C17.55 18.0177 17.3446 18.5122 16.9789 18.8769C16.6132 19.2416 16.1172 19.4464 15.6 19.4464V19.4445ZM24.7787 12.2343C24.5988 12.0486 24.3836 11.9004 24.1457 11.7985C23.9078 11.6966 23.6519 11.643 23.393 11.6407C23.1341 11.6385 22.8773 11.6877 22.6376 11.7855C22.398 11.8832 22.1803 12.0276 21.9972 12.2102C21.8141 12.3928 21.6693 12.6099 21.5712 12.8489C21.4732 13.0878 21.4239 13.3439 21.4261 13.6021C21.4284 13.8603 21.4822 14.1154 21.5844 14.3526C21.6866 14.5899 21.8351 14.8044 22.0214 14.9838L24.5427 17.5L22.0214 20.0142C21.6661 20.381 21.4696 20.8722 21.474 21.382C21.4785 21.8918 21.6836 22.3795 22.0451 22.7401C22.4067 23.1006 22.8957 23.3051 23.407 23.3095C23.9183 23.314 24.4109 23.118 24.7787 22.7638L27.3 20.2495L29.8214 22.7638C30.1891 23.118 30.6817 23.314 31.193 23.3095C31.7043 23.3051 32.1934 23.1006 32.5549 22.7401C32.9164 22.3795 33.1215 21.8918 33.126 21.382C33.1304 20.8722 32.9339 20.381 32.5787 20.0142L30.0573 17.5L32.5787 14.9858C32.9339 14.619 33.1304 14.1278 33.126 13.618C33.1215 13.1082 32.9164 12.6205 32.5549 12.2599C32.1934 11.8994 31.7043 11.6949 31.193 11.6905C30.6817 11.686 30.1891 11.882 29.8214 12.2362L27.3 14.7505L24.7787 12.2362V12.2343Z" fill="white"/>
</svg>
