<svg width="33" height="39" viewBox="0 0 33 39" fill="none" xmlns="http://www.w3.org/2000/svg">
<path d="M32.1 21.45V35.1C32.1 36.1343 31.6891 37.1263 30.9577 37.8577C30.2263 38.5891 29.2344 39 28.2 39C27.1657 39 26.1737 38.5891 25.4423 37.8577C24.7109 37.1263 24.3 36.1343 24.3 35.1V25.35H20.4V5.85C20.4 4.29848 21.0164 2.81051 22.1134 1.71343C23.2105 0.616337 24.6985 0 26.25 0L32.1 0V21.45ZM4.80002 19.5C3.76568 19.5 2.7737 19.0891 2.04231 18.3577C1.31092 17.6263 0.900024 16.6343 0.900024 15.6V1.95C0.900024 1.43283 1.10547 0.936838 1.47117 0.571142C1.83686 0.205446 2.33285 0 2.85002 0C3.3672 0 3.86319 0.205446 4.22888 0.571142C4.59458 0.936838 4.80002 1.43283 4.80002 1.95V9.75H6.75002V1.95C6.75002 1.43283 6.95547 0.936838 7.32117 0.571142C7.68686 0.205446 8.18285 0 8.70002 0C9.2172 0 9.71319 0.205446 10.0789 0.571142C10.4446 0.936838 10.65 1.43283 10.65 1.95V9.75H12.6V1.95C12.6 1.43283 12.8055 0.936838 13.1712 0.571142C13.5369 0.205446 14.0329 0 14.55 0C15.0672 0 15.5632 0.205446 15.9289 0.571142C16.2946 0.936838 16.5 1.43283 16.5 1.95V15.6C16.5 16.6343 16.0891 17.6263 15.3577 18.3577C14.6263 19.0891 13.6344 19.5 12.6 19.5V35.1C12.6 36.1343 12.1891 37.1263 11.4577 37.8577C10.7263 38.5891 9.73437 39 8.70002 39C7.66568 39 6.6737 38.5891 5.94231 37.8577C5.21092 37.1263 4.80002 36.1343 4.80002 35.1V19.5Z" fill="#80FF8E"/>
</svg>
